<svg width="172" height="52" viewBox="0 0 172 52" fill="none" xmlns="http://www.w3.org/2000/svg">
<path d="M0.750216 12.2256L29.138 12.2466L29.1379 0.153697L57.0246 25.2888L42.4333 38.7393L42.4333 38.8466L42.317 38.8465L29.1383 50.9949L29.1382 38.8368L0.750691 38.8158L0.750216 12.2256Z" fill="#FFF15B"/>
<path d="M100.594 20.932C100.594 18.6994 101.949 17.1462 104.077 17.1462C106.206 17.1462 107.56 18.6994 107.56 20.932C107.56 23.1646 106.206 24.7178 104.077 24.7178C101.949 24.7178 100.594 23.1646 100.594 20.932ZM104.174 28.8919C109.399 28.8919 112.978 25.9797 112.978 20.932C112.978 15.9814 109.399 13.0692 104.174 12.9722C98.9496 12.9722 95.3698 15.8843 95.3698 20.932C95.3698 25.9797 98.9496 28.7948 104.174 28.8919ZM89.6616 28.6006H96.0471L89.7584 20.6408L95.7568 13.3604H89.6616L85.1144 19.0877H84.6306V6.46838H79.3094V28.6006H84.6306V22.5822H85.3079L89.6616 28.6006ZM66.4417 18.7964C66.8287 17.4374 67.8929 16.855 69.4409 16.855C70.7954 16.855 71.8597 17.5345 72.1499 18.7964H66.4417ZM69.6344 28.8919C73.3109 28.8919 76.2134 27.0475 77.1809 23.8441L72.2467 23.2617C71.7629 24.4266 70.8922 24.9119 69.5377 24.9119C67.7962 24.9119 66.4417 24.0383 66.2482 22.0969H77.2776L77.3744 20.932C77.3744 15.3989 73.9882 13.1663 69.4409 13.1663C64.4099 13.1663 61.0237 16.0784 61.0237 21.1261C61.0237 25.9797 64.3132 28.8919 69.6344 28.8919ZM48.543 28.9889C51.5422 28.9889 53.6707 27.8241 55.0252 26.2709V28.5036H59.2822V16.5638H49.0267V20.932H53.7675C52.8967 23.1646 50.7682 23.9412 48.8332 23.9412C45.3503 23.9412 43.2218 21.5144 43.2218 17.9228C43.2218 14.3312 45.5438 11.9044 48.8332 11.9044C50.9617 11.9044 52.6065 12.8751 53.574 14.6224L58.4115 12.0985C56.5732 8.89517 53.0902 6.95374 48.8332 6.95374C42.351 6.95374 37.707 11.419 37.707 18.0199C37.707 24.5236 42.2543 28.9889 48.543 28.9889Z" fill="black"/>
<path d="M74.468 44.8116V47.4325H75.629V44.5204C75.629 43.5496 75.0485 42.9672 73.9843 42.9672C73.4038 42.9672 72.92 43.1614 72.533 43.5496V43.0643H71.372V47.4325H72.533V44.9086C72.6298 44.2291 73.0168 43.9379 73.5005 43.9379C74.081 43.9379 74.468 44.2291 74.468 44.8116ZM69.0501 47.4325H70.2111V40.9287H69.0501V47.4325ZM66.7281 47.4325H67.8891V40.9287H66.7281V47.4325ZM63.5353 41.7053C63.5353 42.0936 63.8256 42.3848 64.2126 42.3848C64.5996 42.3848 64.8898 42.0936 64.8898 41.7053C64.8898 41.317 64.5996 41.0258 64.2126 41.0258C63.8256 41.0258 63.5353 41.317 63.5353 41.7053ZM62.1808 45.2969C62.1808 44.5204 62.6646 44.035 63.3418 44.035C64.0191 44.035 64.5028 44.6174 64.5028 45.2969C64.5028 46.0735 64.0191 46.6559 63.3418 46.6559C62.6646 46.6559 62.1808 46.0735 62.1808 45.2969ZM61.7938 41.7053C61.7938 42.0936 62.0841 42.3848 62.4711 42.3848C62.8581 42.3848 63.1483 42.0936 63.1483 41.7053C63.1483 41.317 62.8581 41.0258 62.4711 41.0258C62.0841 41.0258 61.7938 41.317 61.7938 41.7053ZM63.3418 47.5296C64.7931 47.5296 65.7606 46.6559 65.7606 45.2969C65.7606 43.9379 64.7931 43.0643 63.3418 43.0643C61.9873 43.0643 60.9231 43.9379 60.9231 45.2969C60.9231 46.6559 61.8906 47.5296 63.3418 47.5296ZM59.2783 47.4325H60.7296L58.7946 45.1028L60.5361 43.0643H59.1816L57.7304 44.8116H57.5369V40.9287H56.3759V47.4325H57.5369V45.5881H57.7304L59.2783 47.4325ZM52.6026 47.5296C53.1831 47.5296 53.6669 47.3354 53.9571 46.9471L54.0539 47.4325H55.2149V43.0643H54.0539V45.394C54.0539 46.2676 53.5701 46.5589 53.0864 46.5589C52.6026 46.5589 52.2156 46.3647 52.2156 45.7823V43.1614H51.0546V46.0735C50.9579 46.9471 51.4416 47.5296 52.6026 47.5296ZM46.7009 44.7145C46.7977 44.2291 47.1847 43.9379 47.7651 43.9379C48.2489 43.9379 48.6359 44.2291 48.7326 44.7145H46.7009ZM47.8619 47.5296C48.8294 47.5296 49.6034 47.0442 49.8936 46.1706L48.8294 45.9764C48.6359 46.3647 48.3456 46.5589 47.8619 46.5589C47.2814 46.5589 46.7977 46.1706 46.7009 45.4911H49.9904V45.1999C49.9904 43.6467 49.0229 42.9672 47.7651 42.9672C46.4107 42.9672 45.4432 43.8409 45.4432 45.1999C45.5399 46.6559 46.4107 47.5296 47.8619 47.5296ZM38.9609 47.4325H40.2187V43.0643L42.9277 47.4325H44.4757V41.317H43.2179V45.6852L40.5089 41.317H39.0577V47.4325H38.9609Z" fill="black"/>
<path d="M170.549 35.2015V37.9195H171.71V34.7161C171.71 33.9395 171.129 33.4542 170.258 33.4542C169.678 33.4542 169.194 33.7454 168.904 34.2308C168.71 33.7454 168.227 33.4542 167.453 33.4542C166.872 33.4542 166.485 33.6483 166.195 34.0366L166.098 33.4542H164.937V37.8224H166.098V35.3956C166.098 34.619 166.485 34.3278 166.969 34.3278C167.356 34.3278 167.743 34.619 167.743 35.1044V37.8224H168.904V35.3956C168.904 34.522 169.291 34.3278 169.775 34.3278C170.162 34.522 170.549 34.7161 170.549 35.2015ZM161.164 38.1136C161.744 38.1136 162.228 37.9195 162.518 37.5312L162.615 38.0165H163.776V33.6483H162.615V35.978C162.615 36.8517 162.131 37.1429 161.648 37.1429C161.164 37.1429 160.777 36.9488 160.777 36.3663V33.7454H159.616V36.6575C159.519 37.5312 160.1 38.1136 161.164 38.1136ZM156.133 38.0165H157.294V35.978C157.294 35.0073 157.778 34.619 158.745 34.619V33.4542C158.068 33.4542 157.584 33.7454 157.294 34.1337V33.5513H156.133V38.0165ZM154.392 38.0165H155.165V37.0458H154.778C154.488 37.0458 154.198 36.8517 154.198 36.4634V34.522H155.165V33.6483H154.198V32.2893H153.134V32.8718C153.134 33.4542 152.844 33.6483 152.457 33.6483H152.166V34.522H153.037V36.5605C153.037 37.4341 153.521 38.0165 154.392 38.0165ZM150.231 35.2985V37.9195H151.392V35.0073C151.392 34.0366 150.812 33.4542 149.748 33.4542C149.167 33.4542 148.683 33.6483 148.296 34.0366V33.5513H147.135V37.9195H148.296V35.3956C148.393 34.7161 148.78 34.4249 149.264 34.4249C149.941 34.522 150.231 34.7161 150.231 35.2985ZM142.975 35.2015C143.072 34.7161 143.459 34.4249 144.039 34.4249C144.523 34.4249 144.91 34.7161 145.007 35.2015H142.975ZM144.136 38.1136C145.104 38.1136 145.878 37.6283 146.168 36.7546L145.104 36.5605C144.91 36.9488 144.62 37.1429 144.136 37.1429C143.556 37.1429 143.072 36.7546 142.975 36.0751H146.265V35.7839C146.265 34.2308 145.297 33.5513 144.039 33.5513C142.685 33.5513 141.717 34.4249 141.717 35.7839C141.717 37.24 142.685 38.1136 144.136 38.1136ZM136.686 38.0165H141.137V36.9488H138.234L141.137 32.9688V31.9981H136.783V33.0659H139.686L136.783 37.1429V38.0165H136.686ZM133.203 36.2693H136.203V35.3956H133.203V36.2693ZM130.591 38.1136C131.559 38.1136 132.429 37.7253 132.429 36.6575C132.429 35.881 131.752 35.5898 130.785 35.2985C130.204 35.2015 129.914 35.1044 129.914 34.8132C129.914 34.619 130.107 34.4249 130.494 34.4249C130.881 34.4249 131.172 34.619 131.268 34.9103L132.333 34.7161C132.139 33.9395 131.365 33.5513 130.494 33.5513C129.43 33.5513 128.753 34.0366 128.753 34.9103C128.753 35.7839 129.43 36.0751 130.301 36.2693C130.881 36.3663 131.172 36.4634 131.172 36.8517C131.172 37.1429 130.978 37.337 130.494 37.337C130.107 37.337 129.72 37.1429 129.527 36.7546L128.559 37.0458C128.753 37.6283 129.527 38.1136 130.591 38.1136ZM127.108 38.0165H127.882V37.0458H127.495C127.205 37.0458 126.915 36.8517 126.915 36.4634V34.522H127.882V33.6483H126.915V32.2893H125.85V32.8718C125.85 33.4542 125.56 33.6483 125.173 33.6483H124.883V34.522H125.754V36.5605C125.754 37.4341 126.237 38.0165 127.108 38.0165ZM122.948 32.2893C122.948 32.6776 123.238 32.9688 123.625 32.9688C124.012 32.9688 124.302 32.6776 124.302 32.2893C124.302 31.901 124.012 31.6098 123.625 31.6098C123.238 31.6098 122.948 31.901 122.948 32.2893ZM123.045 38.0165H124.206V33.6483H123.045V38.0165ZM118.788 35.2015C118.884 34.7161 119.271 34.4249 119.852 34.4249C120.336 34.4249 120.723 34.7161 120.819 35.2015H118.788ZM119.949 38.1136C120.916 38.1136 121.69 37.6283 121.98 36.7546L120.916 36.5605C120.723 36.9488 120.432 37.1429 119.949 37.1429C119.368 37.1429 118.884 36.7546 118.788 36.0751H122.077V35.7839C122.077 34.2308 121.11 33.5513 119.852 33.5513C118.497 33.5513 117.53 34.4249 117.53 35.7839C117.53 37.24 118.497 38.1136 119.949 38.1136ZM115.498 35.3956V38.0165H116.659V35.2015C116.659 34.1337 116.079 33.5513 115.111 33.5513C114.434 33.5513 113.95 33.7454 113.66 34.2308V31.5128H112.499V38.0165H113.66V35.6868C113.66 34.8132 114.144 34.522 114.627 34.522C115.111 34.522 115.498 34.7161 115.498 35.3956ZM107.758 35.7839C107.758 35.0073 108.242 34.522 108.919 34.522C109.596 34.522 110.08 35.0073 110.08 35.7839C110.08 36.5605 109.596 37.0458 108.919 37.0458C108.242 37.0458 107.758 36.5605 107.758 35.7839ZM108.629 38.1136C109.209 38.1136 109.79 37.9195 109.983 37.4341V38.0165H111.144V31.5128H109.983V34.1337C109.693 33.7454 109.209 33.5513 108.629 33.5513C107.468 33.5513 106.5 34.4249 106.5 35.7839C106.597 37.24 107.468 38.1136 108.629 38.1136ZM104.469 35.2985V37.9195H105.63V35.0073C105.63 34.0366 105.049 33.4542 103.985 33.4542C103.404 33.4542 102.921 33.6483 102.534 34.0366V33.5513H101.373V37.9195H102.534V35.3956C102.63 34.7161 103.017 34.4249 103.501 34.4249C104.082 34.522 104.469 34.7161 104.469 35.2985ZM97.5994 38.1136C98.1799 38.1136 98.6636 37.9195 98.9539 37.5312L99.0506 38.0165H100.212V33.6483H99.0506V35.978C99.0506 36.8517 98.5669 37.1429 98.0831 37.1429C97.5994 37.1429 97.2124 36.9488 97.2124 36.3663V33.7454H96.0514V36.6575C95.9546 37.5312 96.5351 38.1136 97.5994 38.1136ZM93.2456 38.1136C94.2131 38.1136 95.0839 37.7253 95.0839 36.6575C95.0839 35.881 94.4066 35.5898 93.4391 35.2985C92.8586 35.2015 92.5684 35.1044 92.5684 34.8132C92.5684 34.619 92.7619 34.4249 93.1489 34.4249C93.5359 34.4249 93.8261 34.619 93.9229 34.9103L94.9871 34.7161C94.7936 33.9395 94.0196 33.5513 93.1489 33.5513C92.0847 33.5513 91.4074 34.0366 91.4074 34.9103C91.4074 35.7839 92.0846 36.0751 92.9554 36.2693C93.5359 36.3663 93.8261 36.4634 93.8261 36.8517C93.8261 37.1429 93.6326 37.337 93.1489 37.337C92.7619 37.337 92.3749 37.1429 92.1814 36.7546L91.2139 37.0458C91.5042 37.6283 92.1814 38.1136 93.2456 38.1136ZM87.3439 35.2015C87.4407 34.7161 87.8277 34.4249 88.4082 34.4249C88.8919 34.4249 89.2789 34.7161 89.3757 35.2015H87.3439ZM88.4082 38.1136C89.3757 38.1136 90.1497 37.6283 90.4399 36.7546L89.3757 36.5605C89.1822 36.9488 88.8919 37.1429 88.4082 37.1429C87.8277 37.1429 87.3439 36.7546 87.2472 36.0751H90.5367V35.7839C90.5367 34.2308 89.5692 33.5513 88.3114 33.5513C86.9569 33.5513 85.9894 34.4249 85.9894 35.7839C86.0862 37.24 87.0537 38.1136 88.4082 38.1136ZM82.2162 38.1136C83.1837 38.1136 83.8609 37.7253 84.2479 37.0458V38.0165H85.2154V34.7161H82.3129V35.6868H83.9577C83.7642 36.5605 83.0869 37.0458 82.2162 37.0458C81.0552 37.0458 80.3779 36.2693 80.3779 35.0073C80.3779 33.7454 81.1519 32.9688 82.2162 32.9688C82.8934 32.9688 83.4739 33.3571 83.8609 33.9395L84.9252 33.3571C84.4414 32.3864 83.4739 31.901 82.2162 31.901C80.3779 31.901 79.1202 33.163 79.1202 35.1044C79.1202 36.8517 80.3779 38.1136 82.2162 38.1136ZM75.2502 36.2693H78.2494V35.3956H75.2502V36.2693ZM73.0249 38.0165H74.1859V31.5128H73.0249V38.0165ZM70.6062 32.2893C70.6062 32.6776 70.8965 32.9688 71.2835 32.9688C71.6705 32.9688 71.9607 32.6776 71.9607 32.2893C71.9607 31.901 71.6705 31.6098 71.2835 31.6098C70.8965 31.6098 70.6062 31.901 70.6062 32.2893ZM70.7029 38.0165H71.864V33.6483H70.7029V38.0165ZM66.446 35.2015C66.5427 34.7161 66.9297 34.4249 67.5102 34.4249C67.994 34.4249 68.381 34.7161 68.4777 35.2015H66.446ZM67.607 38.1136C68.5745 38.1136 69.3485 37.6283 69.6387 36.7546L68.5745 36.5605C68.381 36.9488 68.0907 37.1429 67.607 37.1429C67.0265 37.1429 66.5427 36.7546 66.446 36.0751H69.7355V35.7839C69.7355 34.2308 68.768 33.5513 67.5102 33.5513C66.1557 33.5513 65.1882 34.4249 65.1882 35.7839C65.1882 37.24 66.1557 38.1136 67.607 38.1136ZM63.8337 38.0165H64.6077V37.0458H64.2207C63.9305 37.0458 63.6402 36.8517 63.6402 36.4634V34.522H64.6077V33.6483H63.6402V32.2893H62.576V32.8718C62.576 33.4542 62.2857 33.6483 61.8987 33.6483H61.6085V34.522H62.4792V36.5605C62.4792 37.4341 62.963 38.0165 63.8337 38.0165ZM60.1572 38.0165H60.9312V37.0458H60.5442C60.254 37.0458 59.9637 36.8517 59.9637 36.4634V34.522H60.9312V33.6483H59.9637V32.2893H58.8995V32.8718C58.8995 33.4542 58.6092 33.6483 58.2222 33.6483H57.932V34.522H58.8027V36.5605C58.8027 37.4341 59.2865 38.0165 60.1572 38.0165ZM53.7717 35.7839C53.7717 35.0073 54.2555 34.522 54.9327 34.522C55.61 34.522 56.0937 35.0073 56.0937 35.7839C56.0937 36.5605 55.61 37.0458 54.9327 37.0458C54.2555 37.0458 53.7717 36.5605 53.7717 35.7839ZM54.6425 38.1136C55.223 38.1136 55.8035 37.9195 55.997 37.4341V38.0165H57.158V31.5128H55.997V34.1337C55.7067 33.7454 55.223 33.5513 54.6425 33.5513C53.4815 33.5513 52.514 34.4249 52.514 35.7839C52.514 37.24 53.4815 38.1136 54.6425 38.1136ZM48.8375 36.7546C48.8375 36.4634 49.1278 36.2693 49.5148 36.2693L50.579 35.978C50.4823 36.9488 49.9985 37.24 49.418 37.24C49.031 37.24 48.8375 37.0458 48.8375 36.7546ZM49.031 38.1136C49.6115 38.1136 50.192 37.9195 50.4823 37.4341L50.579 38.0165H51.74V37.9195C51.6432 37.7253 51.6432 37.5312 51.6432 37.24V35.2985C51.6432 34.9103 51.6432 34.7161 51.5465 34.522C51.353 33.9395 50.6758 33.5513 49.7083 33.5513C48.644 33.5513 47.87 34.0366 47.5798 34.9103L48.7408 35.1044C48.8375 34.619 49.2245 34.4249 49.7083 34.4249C50.0953 34.4249 50.3855 34.619 50.3855 35.0073C50.3855 35.2015 50.192 35.2985 49.9985 35.2985L49.2245 35.4927C48.4505 35.6868 47.5798 35.978 47.5798 36.9488C47.5798 37.7253 48.3538 38.1136 49.031 38.1136ZM46.1285 38.0165H46.9025V37.0458H46.5155C46.2253 37.0458 45.935 36.8517 45.935 36.4634V34.522H46.9025V33.6483H45.935V32.2893H44.8708V32.8718C44.8708 33.4542 44.5805 33.6483 44.1935 33.6483H43.9033V34.522H44.774V36.5605C44.774 37.4341 45.2578 38.0165 46.1285 38.0165ZM41.0975 38.1136C42.452 38.1136 43.4195 37.337 43.4195 36.2693C43.4195 34.9103 42.2585 34.619 41.291 34.3278C40.6138 34.1337 40.0333 34.0366 40.0333 33.5513C40.0333 33.0659 40.4203 32.8718 41.0008 32.8718C41.678 32.8718 41.9683 33.163 42.1618 33.7454L43.3228 33.4542C43.0325 32.2893 41.9683 31.804 40.904 31.804C39.6463 31.804 38.7755 32.4835 38.7755 33.6483C38.7755 34.9103 39.8398 35.2015 40.8073 35.4927C41.4845 35.6868 42.1618 35.881 42.1618 36.4634C42.1618 36.9488 41.7748 37.24 41.1943 37.24C40.517 37.24 40.0333 36.9488 39.8398 36.1722L38.582 36.4634C38.6788 37.4341 39.743 38.1136 41.0975 38.1136Z" fill="black"/>
</svg>