<svg width="289" height="60" viewBox="0 0 289 60" fill="none" xmlns="http://www.w3.org/2000/svg">
<g clip-path="url(#clip0_1093_2928)">
<path d="M280.98 -0.0014541L27.2891 15.5112L29.9283 58.6514L283.62 43.1387L280.98 -0.0014541Z" fill="white"/>
<path d="M49.6406 20.752L55.2916 19.5542C55.9007 22.0396 57.2884 23.0178 59.1255 23.0178C60.723 23.0178 61.6116 22.3191 61.6116 21.1512C61.6116 19.7039 59.7745 19.095 57.6179 18.3564C54.423 17.3582 50.4893 15.9907 50.4893 11.4191C50.4893 7.3665 53.804 4.69141 58.5664 4.69141C62.4303 4.69141 66.6436 6.37831 67.5521 10.93L62.4203 12.0878C61.7513 10.1913 60.703 9.3329 58.9258 9.3329C57.3583 9.3329 56.2501 9.97173 56.2501 11.0797C56.2501 12.1877 57.9075 12.7666 59.9342 13.3855C63.249 14.3836 67.5521 15.6813 67.5521 20.722C67.5521 24.8944 64.1775 27.7092 59.0457 27.7092C54.1834 27.6593 50.2497 25.1938 49.6406 20.752Z" fill="#1D1D1B"/>
<path d="M72.885 21.8599V15.4716H69.8398V11.3292H70.7684C72.4557 11.3292 73.5839 10.7103 73.5839 7.94538V6.31836H78.3763V11.3092H81.5113V15.4516H78.3463V21.0114C78.3463 22.359 78.9953 22.878 80.0736 22.878H81.4813V27.1901H78.1067C74.762 27.1901 72.885 25.2636 72.885 21.8599Z" fill="#1D1D1B"/>
<path d="M84.3672 23.1975C84.3672 19.4444 87.9016 18.5261 90.3577 17.9172L92.9336 17.2085C93.7922 16.9989 94.531 16.7793 94.531 16.0107C94.531 15.2421 93.7323 14.8429 92.8137 14.8429C92.1362 14.7811 91.4571 14.9429 90.8802 15.3034C90.3033 15.6639 89.8602 16.2033 89.6188 16.8392L84.3971 16.0407C85.3955 12.6968 88.7003 11.0498 92.624 11.0498C96.2483 11.0498 98.4947 12.1578 99.4731 14.3038C99.8817 15.3272 100.059 16.4281 99.9923 17.5279V24.4353C99.939 25.2317 100.065 26.0299 100.362 26.771V27.1902H94.9603L94.7307 25.5732C93.6324 26.9507 91.4759 27.4996 89.6687 27.4996C87.2526 27.4996 84.3672 26.4915 84.3672 23.1975ZM91.3561 23.8364C92.8337 23.8364 94.6708 23.1077 94.8904 20.0333L91.2662 21.1114C90.777 21.2611 89.8485 21.5406 89.8485 22.5787C89.8285 23.3872 90.5074 23.7865 91.3361 23.7865L91.3561 23.8364Z" fill="#1D1D1B"/>
<path d="M103.215 19.3046C103.215 14.0243 106.749 11.0198 110.982 11.0198C111.795 10.9627 112.611 11.0811 113.374 11.367C114.138 11.6529 114.83 12.0996 115.405 12.6768V4.17236H120.877V27.1902H115.695L115.505 25.7428C114.927 26.3557 114.219 26.8309 113.433 27.1333C112.646 27.4356 111.802 27.5574 110.963 27.4896C106.709 27.4996 103.215 24.5849 103.215 19.3046ZM112.201 23.0178C112.684 23.0392 113.167 22.9559 113.615 22.7737C114.064 22.5916 114.468 22.3148 114.799 21.9623C115.131 21.6098 115.383 21.1899 115.537 20.7312C115.692 20.2726 115.746 19.7859 115.695 19.3046C115.695 16.8791 114.187 15.5016 112.221 15.5016C111.731 15.4906 111.245 15.5838 110.794 15.775C110.343 15.9662 109.938 16.2511 109.605 16.6107C109.273 16.9704 109.021 17.3965 108.866 17.861C108.711 18.3254 108.656 18.8175 108.706 19.3046C108.659 19.7835 108.715 20.267 108.869 20.7227C109.024 21.1784 109.274 21.5959 109.603 21.9473C109.932 22.2988 110.332 22.576 110.776 22.7606C111.221 22.9452 111.699 23.0329 112.181 23.0178H112.201Z" fill="#1D1D1B"/>
<path d="M126.679 21.8599V15.4716H123.684V11.3292H124.572C126.259 11.3292 127.398 10.7103 127.398 7.94538V6.31836H132.19V11.3092H135.325V15.4516H132.17V21.0114C132.17 22.359 132.819 22.878 133.887 22.878H135.305V27.1901H131.92C128.546 27.1901 126.679 25.2636 126.679 21.8599Z" fill="#1D1D1B"/>
<path d="M140.655 21.8599V15.4716H137.66V11.3292H138.549C140.246 11.3292 141.374 10.7103 141.374 7.94538V6.31836H146.167V11.3092H149.302V15.4516H146.167V21.0114C146.167 22.359 146.816 22.878 147.884 22.878H149.302V27.1901H145.927C142.512 27.1901 140.655 25.2636 140.655 21.8599Z" fill="#1D1D1B"/>
<path d="M151.848 19.2749C151.848 14.0245 155.352 11.02 160.504 11.02C165.146 11.02 168.641 13.3857 168.671 19.0952L168.611 20.3529H157.249C157.315 21.1847 157.707 21.9568 158.338 22.5023C158.97 23.0478 159.791 23.3227 160.624 23.2676C161.21 23.3275 161.799 23.1954 162.303 22.8911C162.808 22.5868 163.199 22.1269 163.419 21.5807L168.411 22.2195C167.413 25.6332 164.418 27.4998 160.614 27.4998C155.222 27.4998 151.848 24.4953 151.848 19.2749ZM163.299 17.0689C163.16 16.4524 162.805 15.906 162.297 15.5289C161.79 15.1517 161.165 14.9686 160.534 15.0127C158.876 15.0127 157.838 15.6216 157.409 17.0689H163.299Z" fill="#1D1D1B"/>
<path d="M174.812 3.86279C175.404 3.86279 175.983 4.03842 176.476 4.36746C176.968 4.6965 177.352 5.16418 177.579 5.71135C177.806 6.25853 177.865 6.86062 177.749 7.4415C177.634 8.02238 177.348 8.55595 176.93 8.97474C176.511 9.39353 175.977 9.67873 175.396 9.79427C174.815 9.90982 174.213 9.85052 173.665 9.62387C173.118 9.39722 172.65 9.01341 172.321 8.52096C171.992 8.02852 171.816 7.44956 171.816 6.8573C171.816 6.06311 172.132 5.30144 172.694 4.73986C173.255 4.17829 174.017 3.86279 174.812 3.86279V3.86279ZM172.046 11.3291H177.517V27.19H172.046V11.3291Z" fill="#1D1D1B"/>
<path d="M181.59 4.17236H187.051V27.1902H181.59V4.17236Z" fill="#1D1D1B"/>
<path d="M191.145 11.3292H196.306L196.486 12.7366C197.069 12.1325 197.779 11.6653 198.565 11.3684C199.35 11.0715 200.192 10.9524 201.029 11.0197C205.272 11.0197 208.806 13.9344 208.806 19.2147C208.806 24.495 205.272 27.4995 201.029 27.4995C200.217 27.5559 199.403 27.4371 198.642 27.1512C197.881 26.8653 197.19 26.419 196.616 25.8426V34.6564H191.145V11.3292ZM199.841 23.0177C201.837 23.0177 203.335 21.6403 203.335 19.2147C203.335 18.2882 202.967 17.3995 202.312 16.7444C201.656 16.0892 200.767 15.7211 199.841 15.7211C198.914 15.7211 198.025 16.0892 197.37 16.7444C196.714 17.3995 196.346 18.2882 196.346 19.2147C196.366 21.6403 197.874 23.0177 199.841 23.0177Z" fill="#1D1D1B"/>
<path d="M212.211 11.3294H217.672V13.2159C218.278 12.4883 219.044 11.9106 219.91 11.5279C220.776 11.1452 221.718 10.968 222.664 11.0099V16.0707C219.14 16.0707 217.672 16.8393 217.672 20.0634V27.1903H212.211V11.3294Z" fill="#1D1D1B"/>
<path d="M224.922 23.1975C224.922 19.4444 228.446 18.5261 230.912 17.9172L233.508 17.2085C234.367 16.9989 235.106 16.7793 235.106 16.0107C235.106 15.2421 234.307 14.8429 233.388 14.8429C232.711 14.7811 232.032 14.9429 231.455 15.3034C230.878 15.6639 230.435 16.2033 230.193 16.8392L224.972 16.0407C225.97 12.6968 229.265 11.0498 233.199 11.0498C236.823 11.0498 239.069 12.1578 240.048 14.3038C240.456 15.3272 240.634 16.4281 240.567 17.5279V24.4353C240.509 25.2319 240.635 26.0312 240.936 26.771V27.1902H235.505L235.285 25.5632C234.187 26.9407 232.031 27.4897 230.223 27.4897C227.807 27.4996 224.922 26.4915 224.922 23.1975ZM231.911 23.8364C233.388 23.8364 235.225 23.1077 235.445 20.0333L231.821 21.1114C231.322 21.2611 230.403 21.5406 230.403 22.5787C230.383 23.3872 231.062 23.7865 231.891 23.7865L231.911 23.8364Z" fill="#1D1D1B"/>
<path d="M249.971 19.1248L243.611 11.3291H249.971L253.315 15.4715L256.64 11.3291H263.02L256.67 19.1248L263.329 27.19H256.64L253.315 23.1973L249.971 27.19H243.281L249.971 19.1248Z" fill="#1D1D1B"/>
<path d="M268.612 3.86279C269.205 3.86279 269.784 4.03842 270.276 4.36746C270.769 4.6965 271.153 5.16418 271.38 5.71135C271.606 6.25853 271.666 6.86062 271.55 7.4415C271.435 8.02238 271.149 8.55595 270.73 8.97474C270.311 9.39353 269.778 9.67873 269.197 9.79427C268.616 9.90982 268.014 9.85052 267.466 9.62387C266.919 9.39722 266.451 9.01341 266.122 8.52096C265.793 8.02852 265.617 7.44956 265.617 6.8573C265.617 6.06311 265.933 5.30144 266.494 4.73986C267.056 4.17829 267.818 3.86279 268.612 3.86279V3.86279ZM265.847 11.3291H271.308V27.19H265.847V11.3291Z" fill="#1D1D1B"/>
<path d="M274.504 23.0877L279.017 21.8201C279.267 22.3632 279.678 22.8168 280.194 23.12C280.709 23.4233 281.306 23.5618 281.902 23.5169C282.901 23.5169 283.53 23.1476 283.53 22.5188C283.53 21.8899 282.731 21.5206 280.644 21.0814C277.21 20.3727 274.873 19.0851 274.873 16.0407C274.873 12.9962 277.569 11.0498 281.663 11.0498C284.758 11.0498 287.773 12.1178 288.651 15.1323L283.899 16.2103C283.666 15.7596 283.311 15.3826 282.876 15.1217C282.44 14.8608 281.941 14.7262 281.433 14.7331C280.634 14.7331 280.175 15.0724 280.175 15.5915C280.175 16.1105 280.824 16.5098 282.881 16.9789C286.804 17.8673 288.991 18.9753 288.991 21.8899C288.991 26.0623 285.516 27.4996 281.772 27.4996C278.028 27.4996 275.053 26.0623 274.504 23.0877Z" fill="#1D1D1B"/>
<path d="M51.4766 37.6509H58.2059L66.6524 51.4656V37.6509H72.3633V59.7005H65.5741L57.1975 45.786V59.7005H51.4766V37.6509Z" fill="#1D1D1B"/>
<path d="M75.9805 51.7749C75.9805 46.5245 79.4849 43.52 84.6467 43.52C89.2793 43.52 92.7837 45.8857 92.8137 51.5952L92.7338 52.8529H81.3919C81.4234 53.268 81.5366 53.6728 81.7249 54.0441C81.9132 54.4153 82.1729 54.7458 82.4892 55.0166C82.8054 55.2873 83.172 55.493 83.568 55.6219C83.9639 55.7508 84.3813 55.8003 84.7964 55.7676C85.3826 55.8292 85.9728 55.6977 86.4774 55.3932C86.982 55.0888 87.3734 54.6279 87.592 54.0807L92.584 54.7195C91.5856 58.1332 88.5904 59.9998 84.7865 59.9998C79.3651 59.9998 75.9805 56.9953 75.9805 51.7749ZM87.4422 49.5689C87.303 48.9524 86.9476 48.406 86.4403 48.0289C85.9329 47.6517 85.3073 47.4686 84.6766 47.5127C83.0193 47.5127 81.9709 48.1216 81.5416 49.5689H87.4422Z" fill="#1D1D1B"/>
<path d="M96.1289 54.51V43.8296H101.59V53.3422C101.565 53.6685 101.613 53.9965 101.731 54.3019C101.849 54.6072 102.034 54.8822 102.273 55.1064C102.511 55.3306 102.797 55.4984 103.109 55.5973C103.422 55.6962 103.752 55.7237 104.076 55.6779C105.704 55.6779 107.331 54.9991 107.361 52.1144V43.8296H112.832V59.7005H107.71L107.501 57.9737C106.826 58.6456 106.018 59.1701 105.13 59.5137C104.241 59.8574 103.291 60.0127 102.339 59.97C98.1557 59.9999 96.1289 57.9737 96.1289 54.51Z" fill="#1D1D1B"/>
<path d="M123.113 53.4621H122.434V59.7006H116.973V36.6729H122.434V49.7788H123.023L127.656 43.7898H133.916L127.746 51.3959L134.225 59.6607H127.676L123.113 53.4621Z" fill="#1D1D1B"/>
<path d="M135.055 51.7452C135.055 46.5548 138.769 43.5503 144.11 43.5203C149.452 43.4904 153.176 46.5148 153.176 51.7452C153.176 56.9757 149.452 59.9702 144.11 60.0001C138.769 60.03 135.055 56.9657 135.055 51.7452ZM140.656 36.3634C141.37 36.4652 142.023 36.821 142.496 37.3656C142.968 37.9102 143.228 38.607 143.228 39.328C143.228 40.049 142.968 40.7458 142.496 41.2904C142.023 41.835 141.37 42.1909 140.656 42.2926C140.231 42.3531 139.798 42.3217 139.387 42.2004C138.975 42.0792 138.594 41.871 138.27 41.5899C137.946 41.3088 137.686 40.9613 137.508 40.5711C137.33 40.1809 137.238 39.7569 137.238 39.328C137.238 38.8991 137.33 38.4751 137.508 38.0849C137.686 37.6947 137.946 37.3472 138.27 37.0661C138.594 36.785 138.975 36.5768 139.387 36.4556C139.798 36.3344 140.231 36.3029 140.656 36.3634V36.3634ZM144.09 55.708C146.307 55.708 147.685 54.1109 147.685 51.7153C147.685 49.3197 146.307 47.7825 144.09 47.7825C141.874 47.7825 140.496 49.3796 140.496 51.7153C140.496 54.051 141.904 55.708 144.11 55.708H144.09ZM147.685 36.3634C148.277 36.3634 148.856 36.5391 149.349 36.8681C149.841 37.1971 150.225 37.6648 150.452 38.212C150.679 38.7592 150.738 39.3613 150.622 39.9422C150.507 40.523 150.221 41.0566 149.803 41.4754C149.384 41.8942 148.85 42.1794 148.269 42.2949C147.688 42.4105 147.086 42.3512 146.538 42.1245C145.991 41.8979 145.523 41.5141 145.194 41.0216C144.865 40.5292 144.689 39.9502 144.689 39.358C144.689 38.963 144.767 38.572 144.919 38.2074C145.071 37.8428 145.293 37.5118 145.574 37.2334C145.854 36.9551 146.187 36.7349 146.552 36.5856C146.918 36.4363 147.31 36.3608 147.705 36.3634H147.685Z" fill="#1D1D1B"/>
<path d="M156.512 36.6729H161.983V59.7006H156.512V36.6729Z" fill="#1D1D1B"/>
<path d="M166.066 36.6729H171.528V59.7006H166.066V36.6729Z" fill="#1D1D1B"/>
<path d="M184.338 47.8125C183.923 47.7764 183.505 47.8271 183.112 47.9614C182.718 48.0956 182.356 48.3105 182.05 48.5922C181.744 48.874 181.499 49.2164 181.333 49.5977C181.166 49.9791 181.081 50.3909 181.083 50.807V59.6807H175.602V43.8298H180.763L180.973 45.5167C181.642 44.8445 182.444 44.3197 183.328 43.9758C184.212 43.632 185.158 43.4769 186.105 43.5203C190.248 43.5203 192.275 45.5167 192.275 49.0103V59.7007H186.814V50.1482C186.835 49.8236 186.785 49.4983 186.666 49.1956C186.547 48.8928 186.363 48.62 186.126 48.3968C185.89 48.1736 185.607 48.0055 185.297 47.9044C184.988 47.8034 184.66 47.772 184.338 47.8125V47.8125Z" fill="#1D1D1B"/>
<path d="M40.3757 34.9358C39.2671 34.9406 38.1975 34.5271 37.3805 33.7779C36.9899 33.4224 36.6779 32.9893 36.4644 32.5063C36.2509 32.0233 36.1406 31.5011 36.1406 30.9731C36.1406 30.445 36.2509 29.9228 36.4644 29.4398C36.6779 28.9568 36.9899 28.5237 37.3805 28.1682C38.2032 27.4296 39.27 27.021 40.3757 27.021C41.4815 27.021 42.5483 27.4296 43.371 28.1682C43.7643 28.522 44.0788 28.9546 44.2941 29.4378C44.5094 29.921 44.6207 30.4441 44.6207 30.9731C44.6207 31.502 44.5094 32.0251 44.2941 32.5083C44.0788 32.9915 43.7643 33.4241 43.371 33.7779C42.5561 34.5305 41.4851 34.9446 40.3757 34.9358V34.9358ZM14.8564 27.0103C12.0742 27.0217 9.38981 25.9846 7.33832 24.1056C6.37066 23.2149 5.59589 22.1354 5.06184 20.9336C4.52779 19.7319 4.2458 18.4334 4.23326 17.1185V9.16304C4.2362 8.89695 4.29453 8.63438 4.40454 8.39207C4.51456 8.14976 4.67384 7.933 4.87224 7.75562C5.29152 7.39802 5.829 7.20941 6.37985 7.22659H8.49648C9.05395 7.23002 9.59225 7.02331 10.0041 6.64765C10.1994 6.46991 10.3554 6.25336 10.4621 6.01186C10.5689 5.77037 10.624 5.50925 10.624 5.24522C10.624 4.98119 10.5689 4.72007 10.4621 4.47857C10.3554 4.23708 10.1994 4.02053 10.0041 3.84279C9.59684 3.45622 9.05802 3.2386 8.49648 3.23391H6.37985C4.71609 3.21825 3.10782 3.83146 1.87701 4.95076C1.29077 5.48572 0.821427 6.13603 0.498426 6.86089C0.175425 7.58575 0.00573444 8.36952 0 9.16304V17.0885C0.00503725 19.3457 0.593123 21.5634 1.70728 23.5267C2.84709 25.5499 4.46502 27.2634 6.41978 28.5176C8.29757 30.0523 9.83745 31.9588 10.9426 34.1173C12.0282 36.2335 12.6446 38.5588 12.7497 40.9348C12.7625 42.7824 13.1565 44.6075 13.9073 46.2959C14.658 47.9842 15.7493 49.4995 17.1128 50.7468C19.9919 53.3609 23.7417 54.8092 27.631 54.8092C31.5203 54.8092 35.2701 53.3609 38.1493 50.7468C39.51 49.4979 40.5987 47.9821 41.3477 46.2939C42.0966 44.6058 42.4897 42.7815 42.5023 40.9348V38.629C44.4719 38.1742 46.214 37.0308 47.4145 35.4049C48.5629 33.8314 49.06 31.8757 48.8023 29.9449C48.5325 27.984 47.5258 26.1994 45.9868 24.9541C44.3931 23.6784 42.4123 22.9833 40.3707 22.9833C38.3291 22.9833 36.3484 23.6784 34.7547 24.9541C33.2157 26.1994 32.209 27.984 31.9392 29.9449C31.6791 31.8773 32.1803 33.8351 33.3369 35.4049C34.5374 37.0308 36.2796 38.1742 38.2491 38.629V40.8949C38.2359 42.2107 37.9526 43.5097 37.4168 44.7116C36.881 45.9135 36.104 46.9926 35.1341 47.882C33.0819 49.738 30.4133 50.7657 27.646 50.7657C24.8787 50.7657 22.2101 49.738 20.1579 47.882C19.1861 46.9941 18.4079 45.9153 17.8719 44.7131C17.3359 43.5109 17.0537 42.211 17.0429 40.8949C17.1477 38.5188 17.7641 36.1934 18.85 34.0774C19.9597 31.9133 21.5106 30.0058 23.4027 28.4776C25.3479 27.2213 26.9556 25.5078 28.0853 23.4868C29.1875 21.5232 29.7684 19.3102 29.7726 17.0586V9.16304C29.7681 8.37026 29.6 7.58694 29.2788 6.86212C28.9575 6.1373 28.49 5.4866 27.9056 4.95076C26.6697 3.82674 25.0534 3.21319 23.3828 3.23391H21.2562C20.6987 3.23047 20.1604 3.43718 19.7486 3.81284C19.5533 3.99059 19.3973 4.20713 19.2905 4.44863C19.1837 4.69012 19.1286 4.95124 19.1286 5.21527C19.1286 5.4793 19.1837 5.74042 19.2905 5.98192C19.3973 6.22341 19.5533 6.43996 19.7486 6.6177C20.1558 7.00427 20.6946 7.22189 21.2562 7.22659H23.3828C23.9368 7.22565 24.4711 7.4322 24.8804 7.80552C25.0752 7.98469 25.2307 8.20223 25.3373 8.44446C25.4438 8.68668 25.499 8.94834 25.4994 9.21294V17.1384C25.5008 18.4489 25.2252 19.7449 24.6907 20.9414C24.1513 22.1575 23.37 23.2511 22.3944 24.1555C21.3889 25.0827 20.2167 25.8109 18.9399 26.3016C17.6439 26.8034 16.2661 27.0606 14.8763 27.0602" fill="black"/>
</g>
<defs>
<clipPath id="clip0_1093_2928">
<rect width="289" height="60" fill="white"/>
</clipPath>
</defs>
</svg>