<svg id="Ebene_1" data-name="Ebene 1" xmlns="http://www.w3.org/2000/svg" xmlns:xlink="http://www.w3.org/1999/xlink" viewBox="0 0 289.46 60.11"><defs><style>.cls-1{fill:none;}.cls-2{fill:#98d1ca;}.cls-3{fill:#1d1d1b;}.cls-4{clip-path:url(#clip-path);}</style><clipPath id="clip-path" transform="translate(-2.12 -0.76)"><rect class="cls-1" x="-6.4" width="63.86" height="59.6"/></clipPath></defs><rect class="cls-2" x="30.54" y="8.49" width="254.57" height="43.3" transform="translate(-3.67 8.93) rotate(-3.5)"/><path class="cls-3" d="M51.84,21.55l5.66-1.2c.61,2.49,2,3.47,3.84,3.47,1.6,0,2.49-.7,2.49-1.87,0-1.45-1.84-2.06-4-2.8-3.2-1-7.14-2.37-7.14-6.95,0-4.06,3.32-6.74,8.09-6.74,3.87,0,8.09,1.69,9,6.25l-5.14,1.16c-.67-1.9-1.72-2.76-3.5-2.76-1.57,0-2.68.64-2.68,1.75s1.66,1.69,3.69,2.31c3.32,1,7.63,2.3,7.63,7.35,0,4.18-3.38,7-8.52,7C56.39,28.47,52.45,26,51.84,21.55Z" transform="translate(-2.12 -0.76)"/><path class="cls-3" d="M75.12,22.66v-6.4H72.07V12.11H73c1.69,0,2.82-.62,2.82-3.39V7.09h4.8v5h3.14v4.15H80.59v5.57c0,1.35.65,1.87,1.73,1.87h1.41V28H80.35C77,28,75.12,26.07,75.12,22.66Z" transform="translate(-2.12 -0.76)"/><path class="cls-3" d="M86.62,24c0-3.76,3.54-4.68,6-5.29L95.2,18c.86-.21,1.6-.43,1.6-1.2s-.8-1.17-1.72-1.17a3.12,3.12,0,0,0-3.2,2l-5.23-.8c1-3.35,4.31-5,8.24-5,3.63,0,5.88,1.11,6.86,3.26a7.49,7.49,0,0,1,.52,3.23v6.92a5.34,5.34,0,0,0,.37,2.34V28H97.23L97,26.38c-1.1,1.38-3.26,1.93-5.07,1.93C89.51,28.31,86.62,27.3,86.62,24Zm7,.64c1.48,0,3.32-.73,3.54-3.81l-3.63,1.08c-.49.15-1.42.43-1.42,1.47C92.09,24.19,92.77,24.59,93.6,24.59Z" transform="translate(-2.12 -0.76)"/><path class="cls-3" d="M105.5,20.1c0-5.29,3.54-8.3,7.78-8.3a5.69,5.69,0,0,1,4.43,1.66V4.94h5.48V28H118l-.19-1.45a5.63,5.63,0,0,1-4.55,1.75C109,28.31,105.5,25.39,105.5,20.1Zm9,3.72A3.37,3.37,0,0,0,118,20.1c0-2.43-1.51-3.81-3.48-3.81A3.46,3.46,0,0,0,111,20.1,3.39,3.39,0,0,0,114.48,23.82Z" transform="translate(-2.12 -0.76)"/><path class="cls-3" d="M129,22.66v-6.4h-3V12.11h.89c1.69,0,2.83-.62,2.83-3.39V7.09h4.8v5h3.14v4.15H134.5v5.57c0,1.35.65,1.87,1.72,1.87h1.42V28h-3.39C130.87,28,129,26.07,129,22.66Z" transform="translate(-2.12 -0.76)"/><path class="cls-3" d="M143,22.66v-6.4H140V12.11h.89c1.7,0,2.83-.62,2.83-3.39V7.09h4.8v5h3.14v4.15h-3.14v5.57c0,1.35.65,1.87,1.72,1.87h1.42V28h-3.38C144.86,28,143,26.07,143,22.66Z" transform="translate(-2.12 -0.76)"/><path class="cls-3" d="M154.21,20.07c0-5.26,3.51-8.27,8.67-8.27,4.65,0,8.15,2.37,8.18,8.09L171,21.15H159.62A3.18,3.18,0,0,0,163,24.07a2.72,2.72,0,0,0,2.8-1.69l5,.64c-1,3.42-4,5.29-7.81,5.29C157.59,28.31,154.21,25.3,154.21,20.07Zm11.47-2.21a2.65,2.65,0,0,0-2.77-2.06c-1.66,0-2.7.61-3.13,2.06Z" transform="translate(-2.12 -0.76)"/><path class="cls-3" d="M177.21,4.63a3,3,0,1,1-3,3A3,3,0,0,1,177.21,4.63Zm-2.77,7.48h5.48V28h-5.48Z" transform="translate(-2.12 -0.76)"/><path class="cls-3" d="M184,4.94h5.47V28H184Z" transform="translate(-2.12 -0.76)"/><path class="cls-3" d="M193.57,12.11h5.17l.18,1.41a5.69,5.69,0,0,1,4.55-1.72c4.25,0,7.79,2.92,7.79,8.21s-3.54,8.3-7.79,8.3a5.68,5.68,0,0,1-4.42-1.66v8.83h-5.48Zm8.71,11.71c2,0,3.5-1.38,3.5-3.81a3.5,3.5,0,1,0-7,0C198.8,22.44,200.31,23.82,202.28,23.82Z" transform="translate(-2.12 -0.76)"/><path class="cls-3" d="M214.67,12.11h5.47V14a6.15,6.15,0,0,1,5-2.21v5.07c-3.53,0-5,.77-5,4V28h-5.47Z" transform="translate(-2.12 -0.76)"/><path class="cls-3" d="M227.4,24c0-3.76,3.53-4.68,6-5.29L236,18c.86-.21,1.6-.43,1.6-1.2s-.8-1.17-1.72-1.17a3.12,3.12,0,0,0-3.2,2l-5.23-.8c1-3.35,4.3-5,8.24-5,3.63,0,5.88,1.11,6.86,3.26a7.49,7.49,0,0,1,.52,3.23v6.92a5.2,5.2,0,0,0,.37,2.34V28H238l-.22-1.63c-1.1,1.38-3.26,1.93-5.07,1.93C230.29,28.31,227.4,27.3,227.4,24Zm7,.64c1.48,0,3.32-.73,3.54-3.81l-3.63,1.08c-.5.15-1.42.43-1.42,1.47C232.87,24.19,233.55,24.59,234.38,24.59Z" transform="translate(-2.12 -0.76)"/><path class="cls-3" d="M252.49,19.92l-6.37-7.81h6.37l3.35,4.15,3.33-4.15h6.39l-6.36,7.81L265.87,28h-6.7L255.84,24,252.49,28h-6.7Z" transform="translate(-2.12 -0.76)"/><path class="cls-3" d="M271.16,4.63a3,3,0,1,1-3,3A3,3,0,0,1,271.16,4.63Zm-2.77,7.48h5.47V28h-5.47Z" transform="translate(-2.12 -0.76)"/><path class="cls-3" d="M277.06,23.89l4.52-1.27a2.94,2.94,0,0,0,2.89,1.7c1,0,1.63-.37,1.63-1s-.8-1-2.89-1.44c-3.44-.71-5.78-2-5.78-5.05s2.7-5,6.8-5c3.1,0,6.12,1.07,7,4.09L286.47,17A2.74,2.74,0,0,0,284,15.52c-.8,0-1.26.34-1.26.86s.65.92,2.71,1.39c3.93.89,6.12,2,6.12,4.92,0,4.18-3.48,5.62-7.23,5.62S277.61,26.87,277.06,23.89Z" transform="translate(-2.12 -0.76)"/><path class="cls-3" d="M53.68,38.48h6.74l8.46,13.84V38.48H74.6V60.57H67.8L59.41,46.63V60.57H53.68Z" transform="translate(-2.12 -0.76)"/><path class="cls-3" d="M78.22,52.63c0-5.26,3.51-8.27,8.68-8.27,4.64,0,8.15,2.37,8.18,8.09L95,53.71H83.64a3.17,3.17,0,0,0,3.41,2.92,2.71,2.71,0,0,0,2.8-1.69l5,.64c-1,3.42-4,5.29-7.81,5.29C81.61,60.87,78.22,57.86,78.22,52.63ZM89.7,50.42a2.65,2.65,0,0,0-2.77-2.06c-1.66,0-2.71.61-3.14,2.06Z" transform="translate(-2.12 -0.76)"/><path class="cls-3" d="M98.4,55.37V44.67h5.47V54.2a2.19,2.19,0,0,0,2.49,2.34c1.63,0,3.26-.68,3.29-3.57v-8.3h5.48v15.9H110l-.21-1.73a6.89,6.89,0,0,1-5.17,2C100.43,60.87,98.4,58.84,98.4,55.37Z" transform="translate(-2.12 -0.76)"/><path class="cls-3" d="M125.43,54.32h-.68v6.25h-5.47V37.5h5.47V50.63h.59l4.64-6h6.27l-6.18,7.62,6.49,8.28H130Z" transform="translate(-2.12 -0.76)"/><path class="cls-3" d="M137.39,52.6c0-5.2,3.72-8.21,9.07-8.24s9.08,3,9.08,8.24-3.73,8.24-9.08,8.27S137.39,57.83,137.39,52.6ZM143,37.19a3,3,0,0,1,0,5.94,3,3,0,1,1,0-5.94Zm3.44,19.38c2.22,0,3.6-1.6,3.6-4s-1.38-3.94-3.6-3.94-3.6,1.6-3.6,3.94S144.25,56.57,146.46,56.57Zm3.6-19.38a3,3,0,1,1-3,3A3,3,0,0,1,150.06,37.19Z" transform="translate(-2.12 -0.76)"/><path class="cls-3" d="M158.88,37.5h5.48V60.57h-5.48Z" transform="translate(-2.12 -0.76)"/><path class="cls-3" d="M168.45,37.5h5.47V60.57h-5.47Z" transform="translate(-2.12 -0.76)"/><path class="cls-3" d="M186.75,48.66a3,3,0,0,0-3.26,3v8.89H178V44.67h5.17l.21,1.69a6.81,6.81,0,0,1,5.14-2c4.15,0,6.18,2,6.18,5.5V60.57h-5.47V51A2.21,2.21,0,0,0,186.75,48.66Z" transform="translate(-2.12 -0.76)"/><g class="cls-4"><path d="M42.56,35.76a4.41,4.41,0,0,1-3-1.16,3.8,3.8,0,0,1,0-5.62,4.49,4.49,0,0,1,6,0,3.78,3.78,0,0,1,0,5.62,4.37,4.37,0,0,1-3,1.16M17,27.82a11.08,11.08,0,0,1-7.53-2.91,9.64,9.64,0,0,1-3.11-7V9.94A1.92,1.92,0,0,1,7,8.53,2.22,2.22,0,0,1,8.51,8h2.12a2.22,2.22,0,0,0,1.51-.58,1.9,1.9,0,0,0,0-2.81A2.22,2.22,0,0,0,10.63,4H8.51A6.61,6.61,0,0,0,4,5.72,5.77,5.77,0,0,0,2.12,9.94v7.94a13.13,13.13,0,0,0,1.71,6.45,14.25,14.25,0,0,0,4.72,5,17.61,17.61,0,0,1,4.53,5.61,16.57,16.57,0,0,1,1.81,6.83,13.45,13.45,0,0,0,4.37,9.83,15.67,15.67,0,0,0,21.07,0,13.47,13.47,0,0,0,4.36-9.83V39.46a8.49,8.49,0,0,0,4.92-3.23A7.58,7.58,0,0,0,51,30.76a7.8,7.8,0,0,0-2.82-5,9,9,0,0,0-11.25,0,7.8,7.8,0,0,0-2.82,5,7.53,7.53,0,0,0,1.4,5.47,8.49,8.49,0,0,0,4.92,3.23v2.27a9.63,9.63,0,0,1-3.12,7,11.18,11.18,0,0,1-15,0,9.59,9.59,0,0,1-3.12-7A16.56,16.56,0,0,1,21,34.9a17.44,17.44,0,0,1,4.56-5.61,14.2,14.2,0,0,0,4.69-5,13.21,13.21,0,0,0,1.69-6.44V9.94a5.77,5.77,0,0,0-1.87-4.22A6.61,6.61,0,0,0,25.54,4H23.41a2.22,2.22,0,0,0-1.51.58,1.9,1.9,0,0,0,0,2.81A2.22,2.22,0,0,0,23.41,8h2.13a2.22,2.22,0,0,1,1.5.58,1.92,1.92,0,0,1,.62,1.41v7.94a9.32,9.32,0,0,1-.81,3.81,9.82,9.82,0,0,1-2.3,3.22,10.84,10.84,0,0,1-3.46,2.15,11.26,11.26,0,0,1-4.07.76" transform="translate(-2.12 -0.76)"/></g></svg>